<?xml version="1.0" encoding="UTF-8" standalone="no"?>
<!DOCTYPE svg PUBLIC "-//W3C//DTD SVG 1.1//EN"
 "http://www.w3.org/Graphics/SVG/1.1/DTD/svg11.dtd">
<!-- Generated by graphviz version 2.47.1 (20210417.1919)
 -->
<!-- Title: Weather Updater Pages: 1 -->
<svg width="317pt" height="263pt"
 viewBox="0.00 0.00 317.00 263.00" xmlns="http://www.w3.org/2000/svg" xmlns:xlink="http://www.w3.org/1999/xlink">
<g id="graph0" class="graph" transform="scale(1 1) rotate(0) translate(4 259)">
<title>Weather Updater</title>
<polygon fill="white" stroke="transparent" points="-4,4 -4,-259 313,-259 313,4 -4,4"/>
<g id="clust1" class="cluster">
<title>cluster_Get_Random_European_Weather</title>
<polygon fill="#e5e5e5" stroke="black" points="59,-138 59,-191 301,-191 301,-138 59,-138"/>
</g>
<!-- Every_15_minutes -->
<g id="node1" class="node">
<title>Every_15_minutes</title>
<ellipse fill="none" stroke="green" cx="189" cy="-237" rx="77.99" ry="18"/>
<text text-anchor="middle" x="189" y="-233.3" font-family="Times New Roman,serif" font-size="14.00">Every_15_minutes</text>
</g>
<!-- Get_Random_European_Weather -->
<g id="node2" class="node">
<title>Get_Random_European_Weather</title>
<polygon fill="white" stroke="blue" points="85.5,-146.5 85.5,-182.5 292.5,-182.5 292.5,-146.5 85.5,-146.5"/>
<text text-anchor="middle" x="189" y="-160.8" font-family="Times New Roman,serif" font-size="14.00">Get_Random_European_Weather</text>
</g>
<!-- Every_15_minutes&#45;&gt;Get_Random_European_Weather -->
<g id="edge1" class="edge">
<title>Every_15_minutes&#45;&gt;Get_Random_European_Weather</title>
<path fill="none" stroke="black" d="M189,-218.93C189,-211.17 189,-201.78 189,-193.06"/>
<polygon fill="black" stroke="black" points="192.5,-201 189,-191 185.5,-201 192.5,-201"/>
</g>
<!-- Get_current_weather -->
<g id="node3" class="node">
<title>Get_current_weather</title>
<polygon fill="white" stroke="blue" points="0,-73.5 0,-109.5 134,-109.5 134,-73.5 0,-73.5"/>
<text text-anchor="middle" x="67" y="-87.8" font-family="Times New Roman,serif" font-size="14.00">Get_current_weather</text>
</g>
<!-- Create_item -->
<g id="node4" class="node">
<title>Create_item</title>
<polygon fill="white" stroke="blue" points="25.5,-0.5 25.5,-36.5 108.5,-36.5 108.5,-0.5 25.5,-0.5"/>
<text text-anchor="middle" x="67" y="-14.8" font-family="Times New Roman,serif" font-size="14.00">Create_item</text>
</g>
<!-- Get_current_weather&#45;&gt;Create_item -->
<g id="edge3" class="edge">
<title>Get_current_weather&#45;&gt;Create_item</title>
<path fill="none" stroke="black" d="M67,-73.31C67,-65.29 67,-55.55 67,-46.57"/>
<polygon fill="black" stroke="black" points="70.5,-46.53 67,-36.53 63.5,-46.53 70.5,-46.53"/>
</g>
<!-- invisnodeGraph cluster_Get_Random_European_Weather with 1 nodes.Name: Get_current_weather, root name: Weather Updater -->
<!-- invisnodeGraph cluster_Get_Random_European_Weather with 1 nodes.Name: Get_current_weather, root name: Weather Updater&#45;&gt;Get_current_weather -->
<g id="edge2" class="edge">
<title>invisnodeGraph cluster_Get_Random_European_Weather with 1 nodes.Name: Get_current_weather, root name: Weather Updater&#45;&gt;Get_current_weather</title>
<path fill="none" stroke="black" d="M67,-138C67,-132.03 67,-125.64 67,-119.6"/>
<polygon fill="black" stroke="black" points="70.5,-119.58 67,-109.58 63.5,-119.58 70.5,-119.58"/>
</g>
</g>
</svg>
